<svg width="190" height="102" viewBox="0 0 190 102" fill="none" xmlns="http://www.w3.org/2000/svg">
<path d="M74.7334 66.0361C73.3014 66.0361 72.0296 65.7838 70.918 65.2792C69.8252 64.7747 68.9679 63.9805 68.3462 62.8966C67.7433 61.794 67.4418 60.3458 67.4418 58.5518V48.8811C67.4418 48.1709 67.0744 47.7037 66.3396 47.4795L65.7178 47.3113V47.031H73.5464V47.3113L72.7268 47.5356C72.0296 47.7038 71.6811 48.1709 71.6811 48.9371V59.2806C71.6811 61.0185 72.0485 62.308 72.7833 63.1489C73.5181 63.9711 74.5732 64.3823 75.9486 64.3823C77.3806 64.3823 78.511 63.9431 79.34 63.0648C80.1879 62.1865 80.6118 60.9438 80.6118 59.3367V49.0492C80.6118 48.6755 80.5459 48.3485 80.414 48.0682C80.301 47.7692 80.056 47.5729 79.6792 47.4795L78.9726 47.3113V47.031H82.9293V47.3113L82.1662 47.5075C81.8083 47.5823 81.5727 47.7598 81.4597 48.0401C81.3466 48.3204 81.2901 48.6475 81.2901 49.0212V59.2806C81.2901 60.6448 81.0169 61.8408 80.4705 62.8686C79.9241 63.8777 79.1611 64.6626 78.1813 65.2232C77.2016 65.7651 76.0522 66.0361 74.7334 66.0361Z" fill="white"/>
<path d="M83.2159 65.5315V65.2512L83.6116 65.1391C84.271 64.9522 84.6007 64.4944 84.6007 63.7656V54.9918C84.6007 54.5807 84.5348 54.2817 84.4029 54.0948C84.271 53.8893 84.0167 53.7491 83.6398 53.6744L83.2159 53.5622V53.2819L88.0487 51.6561L88.3313 51.9364L88.5574 53.6183C89.2168 53.039 89.9611 52.5625 90.7901 52.1887C91.6191 51.815 92.4387 51.6281 93.2489 51.6281C94.4924 51.6281 95.4439 51.9645 96.1033 52.6372C96.7816 53.31 97.1208 54.3378 97.1208 55.7206V63.7936C97.1208 64.5224 97.4787 64.9802 98.1947 65.1671L98.4491 65.2512V65.5315H91.7793V65.2512L92.1467 65.1391C92.8061 64.9335 93.1358 64.4757 93.1358 63.7656V54.8236C93.1358 53.6277 92.5329 53.0297 91.3271 53.0297C90.498 53.0297 89.5937 53.4408 88.6139 54.263V63.7936C88.6139 64.5224 88.9436 64.9802 89.6031 65.1671L89.8574 65.2512V65.5315H83.2159Z" fill="white"/>
<path d="M102.946 50.1705C102.306 50.1705 101.759 49.9743 101.307 49.5818C100.874 49.1707 100.657 48.6568 100.657 48.0401C100.657 47.4048 100.874 46.8908 101.307 46.4984C101.759 46.106 102.306 45.9098 102.946 45.9098C103.587 45.9098 104.124 46.106 104.557 46.4984C104.991 46.8908 105.207 47.4048 105.207 48.0401C105.207 48.6568 104.991 49.1707 104.557 49.5818C104.124 49.9743 103.587 50.1705 102.946 50.1705ZM99.6113 65.5315V65.2512L100.007 65.1391C100.384 65.027 100.638 64.8588 100.77 64.6345C100.921 64.4103 100.996 64.1113 100.996 63.7375V54.9638C100.996 54.5714 100.921 54.2817 100.77 54.0948C100.638 53.8893 100.384 53.7491 100.007 53.6744L99.6113 53.5903V53.31L104.783 51.6561L105.066 51.9364L104.981 55.9169V63.7656C104.981 64.1393 105.047 64.4383 105.179 64.6626C105.33 64.8868 105.584 65.055 105.942 65.1671L106.225 65.2512V65.5315H99.6113Z" fill="white"/>
<path d="M114.485 65.952C113.204 65.952 112.035 65.681 110.98 65.1391C109.944 64.5785 109.115 63.7749 108.493 62.7284C107.89 61.6632 107.589 60.3645 107.589 58.8321C107.589 57.3184 107.919 56.029 108.578 54.9638C109.256 53.8799 110.151 53.0577 111.263 52.4971C112.393 51.9178 113.628 51.6281 114.965 51.6281C116.058 51.6281 116.981 51.8056 117.735 52.1607C118.489 52.5158 119.063 52.9829 119.459 53.5622C119.855 54.1229 120.052 54.7115 120.052 55.3282C120.052 55.8515 119.892 56.2626 119.572 56.5616C119.252 56.8419 118.837 56.982 118.328 56.982C117.782 56.982 117.339 56.7858 117 56.3934C116.661 56.001 116.463 55.4871 116.407 54.8517C116.388 54.4406 116.397 54.0948 116.435 53.8145C116.473 53.5155 116.473 53.2165 116.435 52.9175C116.36 52.5998 116.237 52.3943 116.067 52.3008C115.917 52.1887 115.7 52.1327 115.417 52.1327C114.268 52.1327 113.373 52.6279 112.733 53.6183C112.111 54.6087 111.8 56.1878 111.8 58.3556C111.8 60.243 112.149 61.6913 112.846 62.7004C113.562 63.6908 114.654 64.186 116.124 64.186C117.01 64.186 117.726 64.0272 118.272 63.7095C118.818 63.3918 119.346 62.9153 119.855 62.2799L120.137 62.5042C119.666 63.6067 118.941 64.457 117.961 65.055C116.981 65.653 115.823 65.952 114.485 65.952Z" fill="white"/>
<path d="M128.426 65.952C126.994 65.952 125.75 65.6623 124.695 65.083C123.64 64.485 122.821 63.6441 122.237 62.5602C121.671 61.4764 121.389 60.2056 121.389 58.748C121.389 57.2904 121.69 56.029 122.293 54.9638C122.915 53.8986 123.753 53.0764 124.808 52.4971C125.882 51.9178 127.088 51.6281 128.426 51.6281C129.764 51.6281 130.96 51.9178 132.015 52.4971C133.07 53.0577 133.899 53.8706 134.502 54.9358C135.124 56.001 135.435 57.2717 135.435 58.748C135.435 60.2243 135.143 61.5044 134.559 62.5883C133.993 63.6534 133.183 64.485 132.128 65.083C131.092 65.6623 129.858 65.952 128.426 65.952ZM128.426 65.3914C129.085 65.3914 129.613 65.2045 130.009 64.8307C130.404 64.457 130.687 63.7936 130.856 62.8405C131.045 61.8875 131.139 60.542 131.139 58.8041C131.139 57.0474 131.045 55.6926 130.856 54.7396C130.687 53.7865 130.404 53.1231 130.009 52.7493C129.613 52.3756 129.085 52.1887 128.426 52.1887C127.766 52.1887 127.229 52.3756 126.815 52.7493C126.419 53.1231 126.127 53.7865 125.939 54.7396C125.769 55.6926 125.684 57.0474 125.684 58.8041C125.684 60.542 125.769 61.8875 125.939 62.8405C126.127 63.7936 126.419 64.457 126.815 64.8307C127.229 65.2045 127.766 65.3914 128.426 65.3914Z" fill="white"/>
<path d="M136.676 65.5315V65.2512L137.1 65.1391C137.477 65.027 137.731 64.8588 137.863 64.6345C138.014 64.4103 138.089 64.1206 138.089 63.7656V54.9918C138.089 54.5807 138.014 54.2817 137.863 54.0948C137.731 53.8893 137.477 53.7491 137.1 53.6744L136.676 53.5622V53.2819L141.537 51.6561L141.82 51.9364L142.074 54.3471V54.5714C142.338 54.0481 142.677 53.5716 143.092 53.1418C143.525 52.6933 143.996 52.3289 144.505 52.0486C145.032 51.7683 145.55 51.6281 146.059 51.6281C146.775 51.6281 147.321 51.8243 147.698 52.2168C148.075 52.6092 148.264 53.1044 148.264 53.7024C148.264 54.3378 148.075 54.833 147.698 55.1881C147.34 55.5244 146.907 55.6926 146.398 55.6926C145.607 55.6926 144.91 55.3002 144.307 54.5153L144.25 54.4592C144.062 54.1976 143.845 54.0575 143.6 54.0388C143.355 54.0014 143.129 54.1135 142.922 54.3752C142.734 54.5433 142.573 54.7489 142.442 54.9918C142.329 55.2161 142.215 55.4777 142.102 55.7767V63.5974C142.102 64.3449 142.432 64.8121 143.092 64.9989L143.996 65.2512V65.5315H136.676Z" fill="white"/>
<path d="M149.151 65.5315V65.2512L149.547 65.1391C150.206 64.9522 150.536 64.4944 150.536 63.7656V54.9918C150.536 54.5807 150.47 54.2817 150.338 54.0948C150.206 53.8893 149.952 53.7491 149.575 53.6744L149.151 53.5622V53.2819L153.984 51.6561L154.267 51.9364L154.493 53.6183C155.152 53.039 155.896 52.5625 156.725 52.1887C157.554 51.815 158.374 51.6281 159.184 51.6281C160.428 51.6281 161.379 51.9645 162.039 52.6372C162.717 53.31 163.056 54.3378 163.056 55.7206V63.7936C163.056 64.5224 163.414 64.9802 164.13 65.1671L164.384 65.2512V65.5315H157.714V65.2512L158.082 65.1391C158.741 64.9335 159.071 64.4757 159.071 63.7656V54.8236C159.071 53.6277 158.468 53.0297 157.262 53.0297C156.433 53.0297 155.529 53.4408 154.549 54.263V63.7936C154.549 64.5224 154.879 64.9802 155.538 65.1671L155.793 65.2512V65.5315H149.151Z" fill="white"/>
<path d="M71.8224 94.5227L66.82 77.8442C66.6881 77.4144 66.5468 77.106 66.3961 76.9192C66.2454 76.7136 65.9816 76.5267 65.6048 76.3585L65.2656 76.2184V75.9381H72.755V76.2184L72.1615 76.4426C71.7282 76.6108 71.4361 76.8164 71.2854 77.0593C71.1347 77.3022 71.1253 77.6386 71.2571 78.0684L74.3377 89.7294L77.6726 79.9465L77.0226 77.9563C76.8907 77.5639 76.7682 77.2649 76.6552 77.0593C76.5421 76.8538 76.3537 76.6856 76.0899 76.5548L75.4682 76.2184V75.9381H82.5619V76.2184L81.6858 76.5548C81.309 76.6856 81.0923 76.8818 81.0358 77.1434C80.9981 77.3863 81.0452 77.704 81.1771 78.0965L84.7663 90.0097L88.1578 78.3207C88.2896 77.8722 88.3368 77.4798 88.2991 77.1434C88.2614 76.807 88.0259 76.5641 87.5925 76.4146L86.999 76.2184V75.9381H90.9274V76.2184L90.1926 76.4987C89.8158 76.6295 89.552 76.8351 89.4013 77.1154C89.2506 77.3957 89.1187 77.7414 89.0056 78.1525L84.3141 94.5227H82.3641L78.1248 81.3481L73.7725 94.5227H71.8224Z" fill="white"/>
<path d="M94.2524 79.0776C93.6118 79.0776 93.0654 78.8813 92.6132 78.4889C92.1799 78.0778 91.9632 77.5639 91.9632 76.9472C91.9632 76.3118 92.1799 75.7979 92.6132 75.4055C93.0654 75.013 93.6118 74.8168 94.2524 74.8168C94.893 74.8168 95.43 75.013 95.8633 75.4055C96.2967 75.7979 96.5133 76.3118 96.5133 76.9472C96.5133 77.5639 96.2967 78.0778 95.8633 78.4889C95.43 78.8813 94.893 79.0776 94.2524 79.0776ZM90.9175 94.4386V94.1583L91.3132 94.0462C91.69 93.934 91.9443 93.7658 92.0762 93.5416C92.227 93.3173 92.3023 93.0184 92.3023 92.6446V83.8709C92.3023 83.4784 92.227 83.1888 92.0762 83.0019C91.9443 82.7963 91.69 82.6562 91.3132 82.5814L90.9175 82.4973V82.217L96.0894 80.5632L96.372 80.8435L96.2873 84.8239V92.6726C96.2873 93.0464 96.3532 93.3454 96.4851 93.5696C96.6358 93.7939 96.8902 93.9621 97.2482 94.0742L97.5308 94.1583V94.4386H90.9175Z" fill="white"/>
<path d="M104.152 94.8591C102.946 94.8591 102.004 94.5601 101.326 93.9621C100.666 93.3641 100.336 92.411 100.336 91.1029V81.5163H98.3864V81.2359L99.0646 81.1238C99.6487 80.993 100.148 80.8061 100.563 80.5632C100.996 80.3203 101.42 79.9932 101.834 79.5821L104.152 77.0313H104.434L104.35 80.9556H107.515V81.5163H104.321V91.6075C104.321 92.2615 104.463 92.7567 104.745 93.0931C105.047 93.4295 105.424 93.5977 105.876 93.5977C106.271 93.5977 106.62 93.5042 106.921 93.3174C107.223 93.1118 107.524 92.8408 107.826 92.5045L108.108 92.7848C107.732 93.4201 107.213 93.9247 106.554 94.2984C105.895 94.6722 105.094 94.8591 104.152 94.8591Z" fill="white"/>
<path d="M108.994 94.4386V94.1583L109.39 94.0462C110.049 93.8593 110.379 93.4014 110.379 92.6726V83.8989C110.379 83.4878 110.313 83.1888 110.181 83.0019C110.049 82.7963 109.795 82.6562 109.418 82.5814L108.994 82.4693V82.189L113.827 80.5632L114.109 80.8435L114.335 82.5254C114.995 81.9461 115.739 81.4695 116.568 81.0958C117.397 80.722 118.217 80.5352 119.027 80.5352C120.27 80.5352 121.222 80.8715 121.881 81.5443C122.56 82.217 122.899 83.2448 122.899 84.6277V92.7007C122.899 93.4295 123.257 93.8873 123.973 94.0742L124.227 94.1583V94.4386H117.557V94.1583L117.925 94.0462C118.584 93.8406 118.914 93.3828 118.914 92.6726V83.7307C118.914 82.5347 118.311 81.9367 117.105 81.9367C116.276 81.9367 115.372 82.3479 114.392 83.1701V92.7007C114.392 93.4295 114.722 93.8873 115.381 94.0742L115.635 94.1583V94.4386H108.994Z" fill="white"/>
<path d="M132.426 80.5352C133.651 80.5352 134.697 80.7874 135.564 81.292C136.43 81.7779 137.09 82.4506 137.542 83.3103C138.013 84.1512 138.248 85.1136 138.248 86.1975C138.248 86.403 138.239 86.6179 138.22 86.8422C138.201 87.0477 138.164 87.2346 138.107 87.4028H129.685C129.704 89.421 130.062 90.8787 130.759 91.7756C131.475 92.654 132.53 93.0931 133.924 93.0931C134.866 93.0931 135.63 92.9436 136.214 92.6446C136.798 92.3456 137.344 91.9065 137.853 91.3271L138.135 91.5794C137.551 92.6072 136.769 93.4108 135.79 93.9901C134.829 94.5694 133.67 94.8591 132.313 94.8591C130.976 94.8591 129.789 94.5788 128.752 94.0181C127.716 93.4388 126.906 92.6166 126.322 91.5514C125.738 90.4862 125.446 89.2155 125.446 87.7392C125.446 86.2068 125.785 84.908 126.463 83.8428C127.142 82.759 128.008 81.9367 129.063 81.3761C130.137 80.8155 131.258 80.5352 132.426 80.5352ZM132.342 81.0958C131.795 81.0958 131.324 81.264 130.929 81.6004C130.552 81.918 130.25 82.4973 130.024 83.3383C129.817 84.1605 129.704 85.3285 129.685 86.8422H134.518C134.706 84.8052 134.631 83.3383 134.292 82.4413C133.953 81.5443 133.303 81.0958 132.342 81.0958Z" fill="white"/>
<path d="M144.546 94.8591C143.623 94.8591 142.794 94.7469 142.059 94.5227C141.324 94.3171 140.646 94.0555 140.024 93.7378L140.053 90.4021H140.335L141.296 92.084C141.711 92.8315 142.163 93.3921 142.653 93.7658C143.161 94.1209 143.802 94.2984 144.574 94.2984C145.479 94.2984 146.204 94.1022 146.751 93.7098C147.316 93.2987 147.598 92.7567 147.598 92.084C147.598 91.4673 147.401 90.9627 147.005 90.5703C146.609 90.1779 145.875 89.8228 144.801 89.5051L143.614 89.1407C142.464 88.8043 141.56 88.2811 140.9 87.571C140.241 86.8609 139.911 85.9919 139.911 84.9641C139.911 83.7307 140.401 82.6842 141.381 81.8246C142.361 80.965 143.764 80.5352 145.592 80.5352C146.327 80.5352 147.014 80.6193 147.655 80.7875C148.314 80.937 148.946 81.1705 149.549 81.4882L149.379 84.5156H149.096L148.107 82.7777C147.749 82.161 147.391 81.7312 147.033 81.4882C146.694 81.2266 146.176 81.0958 145.479 81.0958C144.838 81.0958 144.235 81.2733 143.67 81.6284C143.105 81.9834 142.822 82.488 142.822 83.1421C142.822 83.7774 143.058 84.282 143.529 84.6557C144.019 85.0295 144.735 85.3752 145.677 85.6929L146.948 86.0573C148.305 86.4684 149.275 87.0384 149.859 87.7672C150.444 88.4773 150.736 89.3369 150.736 90.3461C150.736 91.7102 150.189 92.8035 149.096 93.6257C148.022 94.4479 146.506 94.8591 144.546 94.8591Z" fill="white"/>
<path d="M156.856 94.8591C155.932 94.8591 155.103 94.7469 154.369 94.5227C153.634 94.3171 152.955 94.0555 152.334 93.7378L152.362 90.4021H152.645L153.605 92.084C154.02 92.8315 154.472 93.3921 154.962 93.7658C155.471 94.1209 156.111 94.2984 156.884 94.2984C157.788 94.2984 158.514 94.1022 159.06 93.7098C159.625 93.2987 159.908 92.7567 159.908 92.084C159.908 91.4673 159.71 90.9627 159.314 90.5703C158.919 90.1779 158.184 89.8228 157.11 89.5051L155.923 89.1407C154.774 88.8043 153.869 88.2811 153.21 87.571C152.55 86.8609 152.221 85.9919 152.221 84.9641C152.221 83.7307 152.711 82.6842 153.69 81.8246C154.67 80.965 156.074 80.5352 157.901 80.5352C158.636 80.5352 159.324 80.6193 159.964 80.7875C160.624 80.937 161.255 81.1705 161.858 81.4882L161.688 84.5156H161.406L160.417 82.7777C160.059 82.161 159.701 81.7312 159.343 81.4882C159.003 81.2266 158.485 81.0958 157.788 81.0958C157.148 81.0958 156.545 81.2733 155.979 81.6284C155.414 81.9834 155.132 82.488 155.132 83.1421C155.132 83.7774 155.367 84.282 155.838 84.6557C156.328 85.0295 157.044 85.3752 157.986 85.6929L159.258 86.0573C160.614 86.4684 161.585 87.0384 162.169 87.7672C162.753 88.4773 163.045 89.3369 163.045 90.3461C163.045 91.7102 162.499 92.8035 161.406 93.6257C160.332 94.4479 158.815 94.8591 156.856 94.8591Z" fill="white"/>
<path d="M171.369 80.5352C172.594 80.5352 173.64 80.7874 174.506 81.292C175.373 81.7779 176.033 82.4506 176.485 83.3103C176.956 84.1512 177.191 85.1136 177.191 86.1975C177.191 86.403 177.182 86.6179 177.163 86.8422C177.144 87.0477 177.107 87.2346 177.05 87.4028H168.628C168.647 89.421 169.005 90.8787 169.702 91.7756C170.418 92.654 171.473 93.0931 172.867 93.0931C173.809 93.0931 174.572 92.9436 175.156 92.6446C175.741 92.3456 176.287 91.9065 176.796 91.3271L177.078 91.5794C176.494 92.6072 175.712 93.4108 174.733 93.9901C173.772 94.5694 172.613 94.8591 171.256 94.8591C169.919 94.8591 168.732 94.5788 167.695 94.0181C166.659 93.4388 165.849 92.6166 165.265 91.5514C164.681 90.4862 164.389 89.2155 164.389 87.7392C164.389 86.2068 164.728 84.908 165.406 83.8428C166.084 82.759 166.951 81.9367 168.006 81.3761C169.08 80.8155 170.201 80.5352 171.369 80.5352ZM171.285 81.0958C170.738 81.0958 170.267 81.264 169.872 81.6004C169.495 81.918 169.193 82.4973 168.967 83.3383C168.76 84.1605 168.647 85.3285 168.628 86.8422H173.461C173.649 84.8052 173.574 83.3383 173.235 82.4413C172.896 81.5443 172.246 81.0958 171.285 81.0958Z" fill="white"/>
<path d="M183.489 94.8591C182.566 94.8591 181.737 94.7469 181.002 94.5227C180.267 94.3171 179.589 94.0555 178.967 93.7378L178.995 90.4021H179.278L180.239 92.084C180.653 92.8315 181.106 93.3921 181.596 93.7658C182.104 94.1209 182.745 94.2984 183.517 94.2984C184.422 94.2984 185.147 94.1022 185.694 93.7098C186.259 93.2987 186.541 92.7567 186.541 92.084C186.541 91.4673 186.344 90.9627 185.948 90.5703C185.552 90.1779 184.817 89.8228 183.743 89.5051L182.556 89.1407C181.407 88.8043 180.503 88.2811 179.843 87.571C179.184 86.8609 178.854 85.9919 178.854 84.9641C178.854 83.7307 179.344 82.6842 180.324 81.8246C181.304 80.965 182.707 80.5352 184.535 80.5352C185.27 80.5352 185.957 80.6193 186.598 80.7875C187.257 80.937 187.889 81.1705 188.491 81.4882L188.322 84.5156H188.039L187.05 82.7777C186.692 82.161 186.334 81.7312 185.976 81.4882C185.637 81.2266 185.119 81.0958 184.422 81.0958C183.781 81.0958 183.178 81.2733 182.613 81.6284C182.048 81.9834 181.765 82.488 181.765 83.1421C181.765 83.7774 182.001 84.282 182.472 84.6557C182.962 85.0295 183.678 85.3752 184.62 85.6929L185.891 86.0573C187.248 86.4684 188.218 87.0384 188.802 87.7672C189.386 88.4773 189.678 89.3369 189.678 90.3461C189.678 91.7102 189.132 92.8035 188.039 93.6257C186.965 94.4479 185.449 94.8591 183.489 94.8591Z" fill="white"/>
<path d="M87 0L0 79.5338C2.9541 91.8365 17.6377 103.566 30.9312 101.828L87 0Z" fill="#683DC4"/>
<path d="M87 0L0 79.5338C2.9541 91.8365 17.6377 103.566 30.9312 101.828L87 0Z" fill="url(#paint0_linear)"/>
<path d="M87 1.91145L0 81.3066C8.56528 98.4084 25.6684 100.697 33.1493 99.7034L87 1.91145Z" fill="#683DC4"/>
<path d="M87 1.91145L0 81.3066C8.56528 98.4084 25.6684 100.697 33.1493 99.7034L87 1.91145Z" fill="url(#paint1_linear)"/>
<path d="M87 1.91145L0 81.3066C8.56528 98.4084 25.6684 100.697 33.1493 99.7034L87 1.91145Z" fill="url(#paint2_linear)"/>
<mask id="mask0" mask-type="alpha" maskUnits="userSpaceOnUse" x="0" y="0" width="87" height="102">
<path d="M87 0L0 79.5338C2.9541 91.8365 17.6377 103.566 30.9312 101.828L87 0Z" fill="#683DC4"/>
</mask>
<g mask="url(#mask0)">
<g filter="url(#filter0_ddiiii)">
<path d="M55.9901 64.5125C55.9901 73.7891 48.4698 81.3093 39.193 81.3093C29.9163 81.3093 22.396 73.7891 22.396 64.5125C22.396 55.2359 29.9163 47.7157 39.193 47.7157C48.4698 47.7157 55.9901 55.2359 55.9901 64.5125Z" fill="white"/>
</g>
<g filter="url(#filter1_di)">
<path d="M44.3615 60.4212C44.3615 65.0595 40.6013 68.8196 35.963 68.8196C31.3246 68.8196 27.5645 65.0595 27.5645 60.4212C27.5645 55.7829 31.3246 52.0228 35.963 52.0228C40.6013 52.0228 44.3615 55.7829 44.3615 60.4212Z" fill="#362F24"/>
<path d="M44.3615 60.4212C44.3615 65.0595 40.6013 68.8196 35.963 68.8196C31.3246 68.8196 27.5645 65.0595 27.5645 60.4212C27.5645 55.7829 31.3246 52.0228 35.963 52.0228C40.6013 52.0228 44.3615 55.7829 44.3615 60.4212Z" fill="url(#paint3_linear)"/>
</g>
<path d="M40.0538 60.4212C40.0538 62.9188 38.0291 64.9434 35.5316 64.9434C33.034 64.9434 31.0093 62.9188 31.0093 60.4212C31.0093 57.9236 33.034 55.899 35.5316 55.899C38.0291 55.899 40.0538 57.9236 40.0538 60.4212Z" fill="black"/>
<path d="M34.886 57.4063C34.886 58.7146 33.9219 59.7751 32.7326 59.7751C31.5432 59.7751 30.5791 58.7146 30.5791 57.4063C30.5791 56.0981 31.5432 55.0375 32.7326 55.0375C33.9219 55.0375 34.886 56.0981 34.886 57.4063Z" fill="white"/>
</g>
<defs>
<filter id="filter0_ddiiii" x="-1.604" y="11.7157" width="101.594" height="127.594" filterUnits="userSpaceOnUse" color-interpolation-filters="sRGB">
<feFlood flood-opacity="0" result="BackgroundImageFix"/>
<feColorMatrix in="SourceAlpha" type="matrix" values="0 0 0 0 0 0 0 0 0 0 0 0 0 0 0 0 0 0 127 0"/>
<feOffset dx="30" dy="44"/>
<feGaussianBlur stdDeviation="7"/>
<feColorMatrix type="matrix" values="0 0 0 0 0.460677 0 0 0 0 0.384115 0 0 0 0 0.520833 0 0 0 0.25 0"/>
<feBlend mode="normal" in2="BackgroundImageFix" result="effect1_dropShadow"/>
<feColorMatrix in="SourceAlpha" type="matrix" values="0 0 0 0 0 0 0 0 0 0 0 0 0 0 0 0 0 0 127 0"/>
<feOffset dx="10" dy="14"/>
<feGaussianBlur stdDeviation="17"/>
<feColorMatrix type="matrix" values="0 0 0 0 0.114569 0 0 0 0 0.0253472 0 0 0 0 0.304167 0 0 0 0.63 0"/>
<feBlend mode="normal" in2="effect1_dropShadow" result="effect2_dropShadow"/>
<feBlend mode="normal" in="SourceGraphic" in2="effect2_dropShadow" result="shape"/>
<feColorMatrix in="SourceAlpha" type="matrix" values="0 0 0 0 0 0 0 0 0 0 0 0 0 0 0 0 0 0 127 0" result="hardAlpha"/>
<feOffset dx="-24" dy="-36"/>
<feGaussianBlur stdDeviation="32"/>
<feComposite in2="hardAlpha" operator="arithmetic" k2="-1" k3="1"/>
<feColorMatrix type="matrix" values="0 0 0 0 0.145833 0 0 0 0 0.2025 0 0 0 0 0.5 0 0 0 0.07 0"/>
<feBlend mode="normal" in2="shape" result="effect3_innerShadow"/>
<feColorMatrix in="SourceAlpha" type="matrix" values="0 0 0 0 0 0 0 0 0 0 0 0 0 0 0 0 0 0 127 0" result="hardAlpha"/>
<feOffset dy="-16"/>
<feGaussianBlur stdDeviation="7"/>
<feComposite in2="hardAlpha" operator="arithmetic" k2="-1" k3="1"/>
<feColorMatrix type="matrix" values="0 0 0 0 0.0546875 0 0 0 0 0.161875 0 0 0 0 0.4375 0 0 0 0.21 0"/>
<feBlend mode="normal" in2="effect3_innerShadow" result="effect4_innerShadow"/>
<feColorMatrix in="SourceAlpha" type="matrix" values="0 0 0 0 0 0 0 0 0 0 0 0 0 0 0 0 0 0 127 0" result="hardAlpha"/>
<feOffset dx="-20" dy="-16"/>
<feGaussianBlur stdDeviation="7"/>
<feComposite in2="hardAlpha" operator="arithmetic" k2="-1" k3="1"/>
<feColorMatrix type="matrix" values="0 0 0 0 0.680062 0 0 0 0 0.304688 0 0 0 0 0.975 0 0 0 0.15 0"/>
<feBlend mode="normal" in2="effect4_innerShadow" result="effect5_innerShadow"/>
<feColorMatrix in="SourceAlpha" type="matrix" values="0 0 0 0 0 0 0 0 0 0 0 0 0 0 0 0 0 0 127 0" result="hardAlpha"/>
<feOffset dx="-8" dy="1"/>
<feGaussianBlur stdDeviation="4"/>
<feComposite in2="hardAlpha" operator="arithmetic" k2="-1" k3="1"/>
<feColorMatrix type="matrix" values="0 0 0 0 0.370742 0 0 0 0 0.85 0 0 0 0 0.145208 0 0 0 0.21 0"/>
<feBlend mode="normal" in2="effect5_innerShadow" result="effect6_innerShadow"/>
</filter>
<filter id="filter1_di" x="22.5645" y="46.0228" width="36.797" height="36.7968" filterUnits="userSpaceOnUse" color-interpolation-filters="sRGB">
<feFlood flood-opacity="0" result="BackgroundImageFix"/>
<feColorMatrix in="SourceAlpha" type="matrix" values="0 0 0 0 0 0 0 0 0 0 0 0 0 0 0 0 0 0 127 0"/>
<feOffset dx="5" dy="4"/>
<feGaussianBlur stdDeviation="5"/>
<feColorMatrix type="matrix" values="0 0 0 0 0 0 0 0 0 0 0 0 0 0 0 0 0 0 0.25 0"/>
<feBlend mode="normal" in2="BackgroundImageFix" result="effect1_dropShadow"/>
<feBlend mode="normal" in="SourceGraphic" in2="effect1_dropShadow" result="shape"/>
<feColorMatrix in="SourceAlpha" type="matrix" values="0 0 0 0 0 0 0 0 0 0 0 0 0 0 0 0 0 0 127 0" result="hardAlpha"/>
<feOffset dx="5" dy="6"/>
<feGaussianBlur stdDeviation="7"/>
<feComposite in2="hardAlpha" operator="arithmetic" k2="-1" k3="1"/>
<feColorMatrix type="matrix" values="0 0 0 0 0.595833 0 0 0 0 0.536747 0 0 0 0 0.422049 0 0 0 1 0"/>
<feBlend mode="normal" in2="shape" result="effect2_innerShadow"/>
</filter>
<linearGradient id="paint0_linear" x1="13.1361" y1="95.0658" x2="84.8263" y2="15.4464" gradientUnits="userSpaceOnUse">
<stop stop-color="#FB47FF"/>
<stop offset="0.140625" stop-color="#7536FC"/>
<stop offset="0.255208" stop-color="#215AEC"/>
<stop offset="0.40625" stop-color="#50F7C8"/>
<stop offset="0.59375" stop-color="#00EB86"/>
<stop offset="0.71875" stop-color="#FEDA00"/>
<stop offset="0.848958" stop-color="#FFC700"/>
<stop offset="1" stop-color="#FF3D00"/>
</linearGradient>
<linearGradient id="paint1_linear" x1="98.7715" y1="-13.1871" x2="8.67398" y2="95.8259" gradientUnits="userSpaceOnUse">
<stop stop-color="#FB41FF"/>
<stop offset="1" stop-color="#FB41FF" stop-opacity="0"/>
</linearGradient>
<linearGradient id="paint2_linear" x1="13.1361" y1="93.2381" x2="81.6639" y2="14.0148" gradientUnits="userSpaceOnUse">
<stop stop-color="#FF47D7"/>
<stop offset="0.140625" stop-color="#AB20ED" stop-opacity="0.828125"/>
<stop offset="0.255208" stop-color="#218BEC"/>
<stop offset="0.40625" stop-color="#50F7C8"/>
<stop offset="0.59375" stop-color="#2DEB1C"/>
<stop offset="0.71875" stop-color="#FFF72E"/>
<stop offset="0.848958" stop-color="#FFC700"/>
<stop offset="1" stop-color="#FF0F00"/>
</linearGradient>
<linearGradient id="paint3_linear" x1="42.1264" y1="66.72" x2="32.1025" y2="57.5087" gradientUnits="userSpaceOnUse">
<stop stop-color="#83765C"/>
<stop offset="1" stop-color="#5F523B" stop-opacity="0"/>
</linearGradient>
</defs>
</svg>
