<svg width="190" height="102" viewBox="0 0 190 102" fill="none" xmlns="http://www.w3.org/2000/svg">
<path d="M74.5941 66.1263C73.1598 66.1263 71.8858 65.8741 70.7723 65.3695C69.6777 64.8649 68.8189 64.0707 68.1961 62.9868C67.5922 61.8843 67.2902 60.436 67.2902 58.642V48.9713C67.2902 48.2612 66.9222 47.794 66.1861 47.5697L65.5633 47.4016V47.1212H73.4051V47.4016L72.5841 47.6258C71.8858 47.794 71.5367 48.2612 71.5367 49.0274V59.3708C71.5367 61.1088 71.9047 62.3982 72.6408 63.2391C73.3768 64.0614 74.4337 64.4725 75.8115 64.4725C77.2458 64.4725 78.3782 64.0333 79.2086 63.155C80.0579 62.2767 80.4826 61.034 80.4826 59.4269V49.1395C80.4826 48.7657 80.4165 48.4387 80.2844 48.1584C80.1712 47.8594 79.9258 47.6632 79.5483 47.5697L78.8406 47.4016V47.1212H82.804V47.4016L82.0396 47.5978C81.681 47.6725 81.4451 47.8501 81.3319 48.1304C81.2186 48.4107 81.162 48.7377 81.162 49.1115V59.3708C81.162 60.735 80.8883 61.931 80.341 62.9588C79.7937 63.9679 79.0293 64.7528 78.0479 65.3134C77.0665 65.8554 75.9153 66.1263 74.5941 66.1263Z" fill="black"/>
<path d="M83.091 65.6218V65.3415L83.4874 65.2293C84.1479 65.0425 84.4782 64.5846 84.4782 63.8558V55.0821C84.4782 54.671 84.4122 54.372 84.2801 54.1851C84.1479 53.9795 83.8932 53.8394 83.5157 53.7646L83.091 53.6525V53.3722L87.932 51.7464L88.2151 52.0267L88.4416 53.7086C89.1022 53.1292 89.8477 52.6527 90.6781 52.279C91.5085 51.9052 92.3295 51.7183 93.141 51.7183C94.3867 51.7183 95.3397 52.0547 96.0003 52.7275C96.6797 53.4002 97.0195 54.428 97.0195 55.8109V63.8838C97.0195 64.6126 97.3781 65.0705 98.0952 65.2574L98.35 65.3415V65.6218H91.6689V65.3415L92.0369 65.2293C92.6975 65.0238 93.0278 64.5659 93.0278 63.8558V54.9139C93.0278 53.7179 92.4238 53.1199 91.216 53.1199C90.3855 53.1199 89.4796 53.531 88.4982 54.3533V63.8838C88.4982 64.6126 88.8285 65.0705 89.4891 65.2574L89.7438 65.3415V65.6218H83.091Z" fill="black"/>
<path d="M102.855 50.2607C102.213 50.2607 101.666 50.0645 101.213 49.6721C100.779 49.261 100.562 48.747 100.562 48.1304C100.562 47.495 100.779 46.9811 101.213 46.5887C101.666 46.1962 102.213 46 102.855 46C103.497 46 104.034 46.1962 104.468 46.5887C104.903 46.9811 105.12 47.495 105.12 48.1304C105.12 48.747 104.903 49.261 104.468 49.6721C104.034 50.0645 103.497 50.2607 102.855 50.2607ZM99.5143 65.6218V65.3415L99.9106 65.2293C100.288 65.1172 100.543 64.949 100.675 64.7248C100.826 64.5005 100.901 64.2015 100.901 63.8278V55.054C100.901 54.6616 100.826 54.372 100.675 54.1851C100.543 53.9795 100.288 53.8394 99.9106 53.7646L99.5143 53.6805V53.4002L104.695 51.7464L104.978 52.0267L104.893 56.0071V63.8558C104.893 64.2296 104.959 64.5286 105.091 64.7528C105.242 64.9771 105.497 65.1452 105.856 65.2574L106.139 65.3415V65.6218H99.5143Z" fill="black"/>
<path d="M114.413 66.0422C113.13 66.0422 111.959 65.7713 110.903 65.2293C109.865 64.6687 109.034 63.8652 108.411 62.8187C107.807 61.7535 107.505 60.4547 107.505 58.9223C107.505 57.4087 107.836 56.1192 108.496 55.054C109.176 53.9702 110.072 53.1479 111.186 52.5873C112.318 52.008 113.554 51.7183 114.894 51.7183C115.989 51.7183 116.914 51.8959 117.669 52.2509C118.424 52.606 118.999 53.0732 119.395 53.6525C119.792 54.2131 119.99 54.8018 119.99 55.4185C119.99 55.9417 119.83 56.3528 119.509 56.6518C119.188 56.9321 118.773 57.0723 118.263 57.0723C117.716 57.0723 117.272 56.8761 116.933 56.4836C116.593 56.0912 116.395 55.5773 116.338 54.9419C116.319 54.5308 116.329 54.1851 116.366 53.9048C116.404 53.6058 116.404 53.3068 116.366 53.0078C116.291 52.6901 116.168 52.4845 115.998 52.3911C115.847 52.279 115.63 52.2229 115.347 52.2229C114.196 52.2229 113.299 52.7181 112.658 53.7086C112.035 54.699 111.724 56.2781 111.724 58.4458C111.724 60.3332 112.073 61.7815 112.771 62.7906C113.488 63.7811 114.583 64.2763 116.055 64.2763C116.942 64.2763 117.659 64.1174 118.206 63.7997C118.754 63.4821 119.282 63.0055 119.792 62.3702L120.075 62.5944C119.603 63.697 118.876 64.5472 117.895 65.1452C116.914 65.7432 115.753 66.0422 114.413 66.0422Z" fill="black"/>
<path d="M128.378 66.0422C126.943 66.0422 125.698 65.7526 124.641 65.1733C123.584 64.5753 122.763 63.7343 122.178 62.6505C121.612 61.5666 121.329 60.2959 121.329 58.8382C121.329 57.3806 121.63 56.1192 122.234 55.054C122.857 53.9889 123.697 53.1666 124.754 52.5873C125.83 52.008 127.038 51.7183 128.378 51.7183C129.718 51.7183 130.916 52.008 131.973 52.5873C133.03 53.1479 133.86 53.9608 134.464 55.026C135.087 56.0912 135.398 57.3619 135.398 58.8382C135.398 60.3145 135.106 61.5946 134.521 62.6785C133.955 63.7437 133.143 64.5753 132.086 65.1733C131.048 65.7526 129.812 66.0422 128.378 66.0422ZM128.378 65.4816C129.038 65.4816 129.567 65.2947 129.963 64.921C130.359 64.5472 130.642 63.8838 130.812 62.9308C131.001 61.9777 131.095 60.6322 131.095 58.8943C131.095 57.1377 131.001 55.7829 130.812 54.8298C130.642 53.8767 130.359 53.2133 129.963 52.8396C129.567 52.4658 129.038 52.279 128.378 52.279C127.717 52.279 127.179 52.4658 126.764 52.8396C126.368 53.2133 126.075 53.8767 125.886 54.8298C125.717 55.7829 125.632 57.1377 125.632 58.8943C125.632 60.6322 125.717 61.9777 125.886 62.9308C126.075 63.8838 126.368 64.5472 126.764 64.921C127.179 65.2947 127.717 65.4816 128.378 65.4816Z" fill="black"/>
<path d="M136.642 65.6218V65.3415L137.067 65.2293C137.444 65.1172 137.699 64.949 137.831 64.7248C137.982 64.5005 138.057 64.2109 138.057 63.8558V55.0821C138.057 54.671 137.982 54.372 137.831 54.1851C137.699 53.9795 137.444 53.8394 137.067 53.7646L136.642 53.6525V53.3722L141.511 51.7464L141.794 52.0267L142.049 54.4374V54.6616C142.313 54.1384 142.653 53.6618 143.068 53.232C143.502 52.7835 143.974 52.4191 144.484 52.1388C145.012 51.8585 145.531 51.7183 146.041 51.7183C146.758 51.7183 147.305 51.9146 147.683 52.307C148.06 52.6994 148.249 53.1946 148.249 53.7926C148.249 54.428 148.06 54.9232 147.683 55.2783C147.324 55.6147 146.89 55.7829 146.38 55.7829C145.588 55.7829 144.889 55.3904 144.286 54.6055L144.229 54.5495C144.04 54.2879 143.823 54.1477 143.578 54.129C143.332 54.0916 143.106 54.2038 142.898 54.4654C142.71 54.6336 142.549 54.8391 142.417 55.0821C142.304 55.3063 142.191 55.5679 142.077 55.8669V63.6876C142.077 64.4351 142.408 64.9023 143.068 65.0892L143.974 65.3415V65.6218H136.642Z" fill="black"/>
<path d="M149.138 65.6218V65.3415L149.534 65.2293C150.195 65.0425 150.525 64.5846 150.525 63.8558V55.0821C150.525 54.671 150.459 54.372 150.327 54.1851C150.195 53.9795 149.94 53.8394 149.563 53.7646L149.138 53.6525V53.3722L153.979 51.7464L154.262 52.0267L154.489 53.7086C155.149 53.1292 155.895 52.6527 156.725 52.279C157.555 51.9052 158.376 51.7183 159.188 51.7183C160.434 51.7183 161.387 52.0547 162.047 52.7275C162.727 53.4002 163.066 54.428 163.066 55.8109V63.8838C163.066 64.6126 163.425 65.0705 164.142 65.2574L164.397 65.3415V65.6218H157.716V65.3415L158.084 65.2293C158.744 65.0238 159.075 64.5659 159.075 63.8558V54.9139C159.075 53.7179 158.471 53.1199 157.263 53.1199C156.433 53.1199 155.527 53.531 154.545 54.3533V63.8838C154.545 64.6126 154.875 65.0705 155.536 65.2574L155.791 65.3415V65.6218H149.138Z" fill="black"/>
<path d="M71.6782 93.6129L66.6674 76.9344C66.5353 76.5046 66.3937 76.1963 66.2427 76.0094C66.0918 75.8038 65.8275 75.617 65.4501 75.4488L65.1104 75.3086V75.0283H72.6124V75.3086L72.0179 75.5329C71.5839 75.7011 71.2913 75.9066 71.1403 76.1496C70.9894 76.3925 70.9799 76.7289 71.112 77.1587L74.1978 88.8196L77.5383 79.0368L76.8872 77.0466C76.7551 76.6541 76.6324 76.3551 76.5192 76.1496C76.406 75.944 76.2172 75.7758 75.953 75.645L75.3302 75.3086V75.0283H82.4359V75.3086L81.5583 75.645C81.1809 75.7758 80.9638 75.972 80.9072 76.2337C80.8695 76.4766 80.9167 76.7943 81.0488 77.1867L84.6441 89.0999L88.0413 77.411C88.1734 76.9625 88.2206 76.57 88.1828 76.2337C88.1451 75.8973 87.9092 75.6543 87.4751 75.5048L86.8806 75.3086V75.0283H90.8156V75.3086L90.0796 75.5889C89.7021 75.7197 89.4379 75.9253 89.2869 76.2056C89.1359 76.4859 89.0038 76.8316 88.8906 77.2428L84.1911 93.6129H82.2378L77.9913 80.4383L73.6316 93.6129H71.6782Z" fill="black"/>
<path d="M94.1462 78.1678C93.5046 78.1678 92.9572 77.9716 92.5043 77.5791C92.0702 77.168 91.8531 76.6541 91.8531 76.0374C91.8531 75.4021 92.0702 74.8882 92.5043 74.4957C92.9572 74.1033 93.5046 73.9071 94.1462 73.9071C94.7879 73.9071 95.3258 74.1033 95.7599 74.4957C96.194 74.8882 96.411 75.4021 96.411 76.0374C96.411 76.6541 96.194 77.168 95.7599 77.5791C95.3258 77.9716 94.7879 78.1678 94.1462 78.1678ZM90.8057 93.5288V93.2485L91.202 93.1364C91.5795 93.0243 91.8343 92.8561 91.9664 92.6318C92.1174 92.4076 92.1929 92.1086 92.1929 91.7348V82.9611C92.1929 82.5687 92.1174 82.279 91.9664 82.0922C91.8343 81.8866 91.5795 81.7464 91.202 81.6717L90.8057 81.5876V81.3073L95.9864 79.6534L96.2695 79.9338L96.1845 83.9142V91.7629C96.1845 92.1366 96.2506 92.4356 96.3827 92.6599C96.5337 92.8841 96.7885 93.0523 97.1471 93.1644L97.4302 93.2485V93.5288H90.8057Z" fill="black"/>
<path d="M104.062 93.9493C102.855 93.9493 101.911 93.6503 101.231 93.0523C100.571 92.4543 100.241 91.5013 100.241 90.1931V80.6065H98.2872V80.3262L98.9666 80.2141C99.5517 80.0833 100.052 79.8964 100.467 79.6534C100.901 79.4105 101.326 79.0835 101.741 78.6724L104.062 76.1215H104.346L104.261 80.0459H107.431V80.6065H104.232V90.6977C104.232 91.3518 104.374 91.847 104.657 92.1834C104.959 92.5197 105.336 92.6879 105.789 92.6879C106.186 92.6879 106.535 92.5945 106.837 92.4076C107.139 92.202 107.441 91.9311 107.743 91.5947L108.026 91.875C107.648 92.5104 107.129 93.0149 106.469 93.3887C105.808 93.7624 105.006 93.9493 104.062 93.9493Z" fill="black"/>
<path d="M108.913 93.5288V93.2485L109.309 93.1364C109.97 92.9495 110.3 92.4917 110.3 91.7629V82.9891C110.3 82.578 110.234 82.279 110.102 82.0922C109.97 81.8866 109.715 81.7464 109.337 81.6717L108.913 81.5596V81.2793L113.754 79.6534L114.037 79.9338L114.263 81.6156C114.924 81.0363 115.669 80.5598 116.5 80.186C117.33 79.8123 118.151 79.6254 118.963 79.6254C120.208 79.6254 121.161 79.9618 121.822 80.6345C122.501 81.3073 122.841 82.3351 122.841 83.718V91.7909C122.841 92.5197 123.2 92.9776 123.917 93.1644L124.172 93.2485V93.5288H117.491V93.2485L117.859 93.1364C118.519 92.9308 118.849 92.473 118.849 91.7629V82.821C118.849 81.625 118.245 81.027 117.038 81.027C116.207 81.027 115.301 81.4381 114.32 82.2603V91.7909C114.32 92.5197 114.65 92.9776 115.311 93.1644L115.565 93.2485V93.5288H108.913Z" fill="black"/>
<path d="M132.385 79.6254C133.612 79.6254 134.659 79.8777 135.527 80.3823C136.396 80.8681 137.056 81.5409 137.509 82.4005C137.981 83.2414 138.217 84.2038 138.217 85.2877C138.217 85.4933 138.207 85.7082 138.189 85.9324C138.17 86.138 138.132 86.3248 138.075 86.493H129.639C129.658 88.5113 130.016 89.9689 130.715 90.8659C131.432 91.7442 132.489 92.1834 133.885 92.1834C134.829 92.1834 135.593 92.0338 136.179 91.7348C136.764 91.4359 137.311 90.9967 137.821 90.4174L138.104 90.6697C137.519 91.6975 136.735 92.501 135.754 93.0803C134.791 93.6597 133.631 93.9493 132.272 93.9493C130.932 93.9493 129.743 93.669 128.705 93.1084C127.667 92.5291 126.855 91.7068 126.27 90.6416C125.685 89.5765 125.393 88.3057 125.393 86.8294C125.393 85.297 125.732 83.9983 126.412 82.9331C127.091 81.8492 127.959 81.027 129.016 80.4663C130.092 79.9057 131.215 79.6254 132.385 79.6254ZM132.3 80.186C131.753 80.186 131.281 80.3542 130.885 80.6906C130.507 81.0083 130.205 81.5876 129.979 82.4285C129.771 83.2508 129.658 84.4187 129.639 85.9324H134.48C134.669 83.8955 134.593 82.4285 134.253 81.5315C133.914 80.6345 133.263 80.186 132.3 80.186Z" fill="black"/>
<path d="M144.525 93.9493C143.6 93.9493 142.77 93.8372 142.034 93.6129C141.298 93.4074 140.619 93.1458 139.996 92.8281L140.024 89.4924H140.307L141.27 91.1742C141.685 91.9217 142.138 92.4823 142.629 92.8561C143.138 93.2112 143.78 93.3887 144.554 93.3887C145.459 93.3887 146.186 93.1925 146.733 92.8C147.3 92.3889 147.583 91.847 147.583 91.1742C147.583 90.5575 147.385 90.053 146.988 89.6605C146.592 89.2681 145.856 88.9131 144.78 88.5954L143.591 88.231C142.44 87.8946 141.534 87.3713 140.873 86.6612C140.213 85.9511 139.882 85.0821 139.882 84.0543C139.882 82.821 140.373 81.7745 141.355 80.9148C142.336 80.0552 143.742 79.6254 145.573 79.6254C146.309 79.6254 146.998 79.7095 147.639 79.8777C148.3 80.0272 148.932 80.2608 149.536 80.5785L149.366 83.6058H149.083L148.092 81.8679C147.734 81.2512 147.375 80.8214 147.017 80.5785C146.677 80.3168 146.158 80.186 145.46 80.186C144.818 80.186 144.214 80.3636 143.648 80.7186C143.081 81.0737 142.798 81.5782 142.798 82.2323C142.798 82.8677 143.034 83.3722 143.506 83.746C143.997 84.1197 144.714 84.4655 145.658 84.7831L146.932 85.1475C148.29 85.5587 149.262 86.1286 149.848 86.8574C150.433 87.5676 150.725 88.4272 150.725 89.4363C150.725 90.8005 150.178 91.8937 149.083 92.7159C148.007 93.5382 146.488 93.9493 144.525 93.9493Z" fill="black"/>
<path d="M156.856 93.9493C155.931 93.9493 155.1 93.8372 154.364 93.6129C153.628 93.4074 152.949 93.1458 152.326 92.8281L152.354 89.4924H152.637L153.6 91.1742C154.015 91.9217 154.468 92.4823 154.959 92.8561C155.468 93.2112 156.11 93.3887 156.884 93.3887C157.79 93.3887 158.516 93.1925 159.064 92.8C159.63 92.3889 159.913 91.847 159.913 91.1742C159.913 90.5575 159.715 90.053 159.318 89.6605C158.922 89.2681 158.186 88.9131 157.11 88.5954L155.921 88.231C154.77 87.8946 153.864 87.3713 153.204 86.6612C152.543 85.9511 152.213 85.0821 152.213 84.0543C152.213 82.821 152.703 81.7745 153.685 80.9148C154.666 80.0552 156.072 79.6254 157.903 79.6254C158.639 79.6254 159.328 79.7095 159.97 79.8777C160.63 80.0272 161.262 80.2608 161.866 80.5785L161.696 83.6058H161.413L160.423 81.8679C160.064 81.2512 159.705 80.8214 159.347 80.5785C159.007 80.3168 158.488 80.186 157.79 80.186C157.148 80.186 156.544 80.3636 155.978 80.7186C155.412 81.0737 155.129 81.5782 155.129 82.2323C155.129 82.8677 155.365 83.3722 155.836 83.746C156.327 84.1197 157.044 84.4655 157.988 84.7831L159.262 85.1475C160.621 85.5587 161.593 86.1286 162.178 86.8574C162.763 87.5676 163.055 88.4272 163.055 89.4363C163.055 90.8005 162.508 91.8937 161.413 92.7159C160.338 93.5382 158.818 93.9493 156.856 93.9493Z" fill="black"/>
<path d="M171.394 79.6254C172.621 79.6254 173.668 79.8777 174.536 80.3823C175.404 80.8681 176.065 81.5409 176.518 82.4005C176.99 83.2414 177.226 84.2038 177.226 85.2877C177.226 85.4933 177.216 85.7082 177.197 85.9324C177.179 86.138 177.141 86.3248 177.084 86.493H168.648C168.667 88.5113 169.025 89.9689 169.724 90.8659C170.441 91.7442 171.498 92.1834 172.894 92.1834C173.838 92.1834 174.602 92.0338 175.187 91.7348C175.773 91.4359 176.32 90.9967 176.829 90.4174L177.112 90.6697C176.527 91.6975 175.744 92.501 174.763 93.0803C173.8 93.6597 172.64 93.9493 171.281 93.9493C169.941 93.9493 168.752 93.669 167.714 93.1084C166.676 92.5291 165.864 91.7068 165.279 90.6416C164.694 89.5765 164.401 88.3057 164.401 86.8294C164.401 85.297 164.741 83.9983 165.421 82.9331C166.1 81.8492 166.968 81.027 168.025 80.4663C169.101 79.9057 170.224 79.6254 171.394 79.6254ZM171.309 80.186C170.762 80.186 170.29 80.3542 169.894 80.6906C169.516 81.0083 169.214 81.5876 168.988 82.4285C168.78 83.2508 168.667 84.4187 168.648 85.9324H173.489C173.678 83.8955 173.602 82.4285 173.262 81.5315C172.923 80.6345 172.272 80.186 171.309 80.186Z" fill="black"/>
<path d="M183.534 93.9493C182.609 93.9493 181.779 93.8372 181.043 93.6129C180.307 93.4074 179.627 93.1458 179.005 92.8281L179.033 89.4924H179.316L180.279 91.1742C180.694 91.9217 181.147 92.4823 181.637 92.8561C182.147 93.2112 182.789 93.3887 183.562 93.3887C184.468 93.3887 185.195 93.1925 185.742 92.8C186.309 92.3889 186.592 91.847 186.592 91.1742C186.592 90.5575 186.393 90.053 185.997 89.6605C185.601 89.2681 184.865 88.9131 183.789 88.5954L182.6 88.231C181.449 87.8946 180.543 87.3713 179.882 86.6612C179.222 85.9511 178.891 85.0821 178.891 84.0543C178.891 82.821 179.382 81.7745 180.363 80.9148C181.345 80.0552 182.751 79.6254 184.582 79.6254C185.318 79.6254 186.007 79.7095 186.648 79.8777C187.309 80.0272 187.941 80.2608 188.545 80.5785L188.375 83.6058H188.092L187.101 81.8679C186.743 81.2512 186.384 80.8214 186.025 80.5785C185.686 80.3168 185.167 80.186 184.468 80.186C183.827 80.186 183.223 80.3636 182.657 80.7186C182.09 81.0737 181.807 81.5782 181.807 82.2323C181.807 82.8677 182.043 83.3722 182.515 83.746C183.006 84.1197 183.723 84.4655 184.667 84.7831L185.941 85.1475C187.299 85.5587 188.271 86.1286 188.856 86.8574C189.441 87.5676 189.734 88.4272 189.734 89.4363C189.734 90.8005 189.187 91.8937 188.092 92.7159C187.016 93.5382 185.497 93.9493 183.534 93.9493Z" fill="black"/>
<mask id="mask0" mask-type="alpha" maskUnits="userSpaceOnUse" x="0" y="0" width="88" height="102">
<path d="M87.1474 0L0 79.5338C2.95911 91.8365 17.6676 103.566 30.9836 101.828L87.1474 0Z" fill="#683DC4"/>
</mask>
<g mask="url(#mask0)">
<path d="M87.1474 0L0 79.5338C2.95911 91.8365 17.6676 103.566 30.9836 101.828L87.1474 0Z" fill="#683DC4"/>
<path d="M87.1474 0L0 79.5338C2.95911 91.8365 17.6676 103.566 30.9836 101.828L87.1474 0Z" fill="url(#paint0_linear)"/>
<g filter="url(#filter0_ddiiii)">
<path d="M56.0851 64.5126C56.0851 73.7892 48.552 81.3094 39.2596 81.3094C29.9671 81.3094 22.4341 73.7892 22.4341 64.5126C22.4341 55.2359 29.9671 47.7158 39.2596 47.7158C48.552 47.7158 56.0851 55.2359 56.0851 64.5126Z" fill="white"/>
</g>
<g filter="url(#filter1_di)">
<path d="M44.4368 60.4212C44.4368 65.0595 40.6703 68.8196 36.0241 68.8196C31.3778 68.8196 27.6113 65.0595 27.6113 60.4212C27.6113 55.7829 31.3778 52.0228 36.0241 52.0228C40.6703 52.0228 44.4368 55.7829 44.4368 60.4212Z" fill="#362F24"/>
<path d="M44.4368 60.4212C44.4368 65.0595 40.6703 68.8196 36.0241 68.8196C31.3778 68.8196 27.6113 65.0595 27.6113 60.4212C27.6113 55.7829 31.3778 52.0228 36.0241 52.0228C40.6703 52.0228 44.4368 55.7829 44.4368 60.4212Z" fill="url(#paint1_linear)"/>
</g>
<path d="M40.1219 60.4212C40.1219 62.9188 38.0938 64.9434 35.592 64.9434C33.0901 64.9434 31.062 62.9188 31.062 60.4212C31.062 57.9237 33.0901 55.899 35.592 55.899C38.0938 55.899 40.1219 57.9237 40.1219 60.4212Z" fill="black"/>
<path d="M34.9456 57.4064C34.9456 58.7146 33.9798 59.7752 32.7885 59.7752C31.5971 59.7752 30.6313 58.7146 30.6313 57.4064C30.6313 56.0981 31.5971 55.0376 32.7885 55.0376C33.9798 55.0376 34.9456 56.0981 34.9456 57.4064Z" fill="white"/>
</g>
<defs>
<filter id="filter0_ddiiii" x="-1.56592" y="11.7158" width="101.651" height="127.594" filterUnits="userSpaceOnUse" color-interpolation-filters="sRGB">
<feFlood flood-opacity="0" result="BackgroundImageFix"/>
<feColorMatrix in="SourceAlpha" type="matrix" values="0 0 0 0 0 0 0 0 0 0 0 0 0 0 0 0 0 0 127 0"/>
<feOffset dx="30" dy="44"/>
<feGaussianBlur stdDeviation="7"/>
<feColorMatrix type="matrix" values="0 0 0 0 0.460677 0 0 0 0 0.384115 0 0 0 0 0.520833 0 0 0 0.25 0"/>
<feBlend mode="normal" in2="BackgroundImageFix" result="effect1_dropShadow"/>
<feColorMatrix in="SourceAlpha" type="matrix" values="0 0 0 0 0 0 0 0 0 0 0 0 0 0 0 0 0 0 127 0"/>
<feOffset dx="10" dy="14"/>
<feGaussianBlur stdDeviation="17"/>
<feColorMatrix type="matrix" values="0 0 0 0 0.114569 0 0 0 0 0.0253472 0 0 0 0 0.304167 0 0 0 0.63 0"/>
<feBlend mode="normal" in2="effect1_dropShadow" result="effect2_dropShadow"/>
<feBlend mode="normal" in="SourceGraphic" in2="effect2_dropShadow" result="shape"/>
<feColorMatrix in="SourceAlpha" type="matrix" values="0 0 0 0 0 0 0 0 0 0 0 0 0 0 0 0 0 0 127 0" result="hardAlpha"/>
<feOffset dx="-24" dy="-36"/>
<feGaussianBlur stdDeviation="32"/>
<feComposite in2="hardAlpha" operator="arithmetic" k2="-1" k3="1"/>
<feColorMatrix type="matrix" values="0 0 0 0 0.145833 0 0 0 0 0.2025 0 0 0 0 0.5 0 0 0 0.07 0"/>
<feBlend mode="normal" in2="shape" result="effect3_innerShadow"/>
<feColorMatrix in="SourceAlpha" type="matrix" values="0 0 0 0 0 0 0 0 0 0 0 0 0 0 0 0 0 0 127 0" result="hardAlpha"/>
<feOffset dy="-16"/>
<feGaussianBlur stdDeviation="7"/>
<feComposite in2="hardAlpha" operator="arithmetic" k2="-1" k3="1"/>
<feColorMatrix type="matrix" values="0 0 0 0 0.0546875 0 0 0 0 0.161875 0 0 0 0 0.4375 0 0 0 0.21 0"/>
<feBlend mode="normal" in2="effect3_innerShadow" result="effect4_innerShadow"/>
<feColorMatrix in="SourceAlpha" type="matrix" values="0 0 0 0 0 0 0 0 0 0 0 0 0 0 0 0 0 0 127 0" result="hardAlpha"/>
<feOffset dx="-20" dy="-16"/>
<feGaussianBlur stdDeviation="7"/>
<feComposite in2="hardAlpha" operator="arithmetic" k2="-1" k3="1"/>
<feColorMatrix type="matrix" values="0 0 0 0 0.680062 0 0 0 0 0.304688 0 0 0 0 0.975 0 0 0 0.15 0"/>
<feBlend mode="normal" in2="effect4_innerShadow" result="effect5_innerShadow"/>
<feColorMatrix in="SourceAlpha" type="matrix" values="0 0 0 0 0 0 0 0 0 0 0 0 0 0 0 0 0 0 127 0" result="hardAlpha"/>
<feOffset dx="-8" dy="1"/>
<feGaussianBlur stdDeviation="4"/>
<feComposite in2="hardAlpha" operator="arithmetic" k2="-1" k3="1"/>
<feColorMatrix type="matrix" values="0 0 0 0 0.370742 0 0 0 0 0.85 0 0 0 0 0.145208 0 0 0 0.21 0"/>
<feBlend mode="normal" in2="effect5_innerShadow" result="effect6_innerShadow"/>
</filter>
<filter id="filter1_di" x="22.6113" y="46.0228" width="36.8255" height="36.7968" filterUnits="userSpaceOnUse" color-interpolation-filters="sRGB">
<feFlood flood-opacity="0" result="BackgroundImageFix"/>
<feColorMatrix in="SourceAlpha" type="matrix" values="0 0 0 0 0 0 0 0 0 0 0 0 0 0 0 0 0 0 127 0"/>
<feOffset dx="5" dy="4"/>
<feGaussianBlur stdDeviation="5"/>
<feColorMatrix type="matrix" values="0 0 0 0 0 0 0 0 0 0 0 0 0 0 0 0 0 0 0.25 0"/>
<feBlend mode="normal" in2="BackgroundImageFix" result="effect1_dropShadow"/>
<feBlend mode="normal" in="SourceGraphic" in2="effect1_dropShadow" result="shape"/>
<feColorMatrix in="SourceAlpha" type="matrix" values="0 0 0 0 0 0 0 0 0 0 0 0 0 0 0 0 0 0 127 0" result="hardAlpha"/>
<feOffset dx="5" dy="6"/>
<feGaussianBlur stdDeviation="7"/>
<feComposite in2="hardAlpha" operator="arithmetic" k2="-1" k3="1"/>
<feColorMatrix type="matrix" values="0 0 0 0 0.595833 0 0 0 0 0.536747 0 0 0 0 0.422049 0 0 0 1 0"/>
<feBlend mode="normal" in2="shape" result="effect2_innerShadow"/>
</filter>
<linearGradient id="paint0_linear" x1="13.1584" y1="95.0658" x2="84.8357" y2="15.3257" gradientUnits="userSpaceOnUse">
<stop stop-color="#FB47FF"/>
<stop offset="0.140625" stop-color="#7536FC"/>
<stop offset="0.255208" stop-color="#215AEC"/>
<stop offset="0.40625" stop-color="#50F7C8"/>
<stop offset="0.59375" stop-color="#00EB86"/>
<stop offset="0.71875" stop-color="#FEDA00"/>
<stop offset="0.848958" stop-color="#FFC700"/>
<stop offset="1" stop-color="#FF3D00"/>
</linearGradient>
<linearGradient id="paint1_linear" x1="42.1979" y1="66.72" x2="32.1726" y2="57.4918" gradientUnits="userSpaceOnUse">
<stop stop-color="#83765C"/>
<stop offset="1" stop-color="#5F523B" stop-opacity="0"/>
</linearGradient>
</defs>
</svg>
