<svg width="608" height="608" viewBox="0 0 608 608" fill="none" xmlns="http://www.w3.org/2000/svg">
<mask id="mask0" style="mask-type:alpha" maskUnits="userSpaceOnUse" x="4" y="4" width="599" height="599">
<path d="M207.488 66.8723C290.592 -16.2313 425.329 -16.2312 508.433 66.8724L539.784 98.2241C622.888 181.328 622.888 316.065 539.784 399.169L399.169 539.784C316.065 622.887 181.328 622.887 98.2243 539.784L66.8725 508.432C-16.231 425.329 -16.2309 290.591 66.8727 207.488L207.488 66.8723Z" fill="#7673FE"/>
</mask>
<g mask="url(#mask0)">
<g clip-path="url(#clip0)">
<rect width="601.92" height="601.92" transform="translate(3.03906 3.04004)" fill="white"/>
<rect x="3.03906" y="3.04004" width="601.92" height="601.92" fill="#7673FE"/>
</g>
</g>
<path d="M268.772 294.397C266.296 294.397 264.097 293.957 262.175 293.076C260.285 292.196 258.803 290.81 257.727 288.918C256.685 286.994 256.164 284.467 256.164 281.336V264.46C256.164 263.22 255.528 262.405 254.258 262.014L253.182 261.72V261.231H266.72V261.72L265.303 262.112C264.097 262.405 263.494 263.22 263.494 264.557V282.608C263.494 285.641 264.13 287.891 265.4 289.358C266.671 290.793 268.495 291.511 270.874 291.511C273.35 291.511 275.305 290.744 276.738 289.212C278.205 287.679 278.938 285.51 278.938 282.706V264.753C278.938 264.101 278.824 263.53 278.596 263.041C278.4 262.519 277.977 262.177 277.325 262.014L276.103 261.72V261.231H282.945V261.72L281.626 262.063C281.007 262.193 280.599 262.503 280.404 262.992C280.208 263.481 280.111 264.052 280.111 264.704V282.608C280.111 284.988 279.638 287.076 278.693 288.869C277.748 290.63 276.429 292 274.735 292.978C273.041 293.924 271.053 294.397 268.772 294.397Z" fill="white"/>
<path d="M283.441 293.516V293.027L284.125 292.831C285.265 292.505 285.835 291.706 285.835 290.435V275.124C285.835 274.406 285.721 273.884 285.493 273.558C285.265 273.199 284.825 272.955 284.174 272.824L283.441 272.629V272.14L291.798 269.302L292.287 269.792L292.677 272.727C293.818 271.716 295.105 270.884 296.538 270.232C297.972 269.58 299.389 269.253 300.79 269.253C302.941 269.253 304.586 269.84 305.726 271.014C306.899 272.189 307.486 273.982 307.486 276.395V290.483C307.486 291.755 308.105 292.554 309.343 292.88L309.783 293.027V293.516H298.249V293.027L298.884 292.831C300.025 292.473 300.595 291.674 300.595 290.435V274.83C300.595 272.743 299.552 271.699 297.467 271.699C296.033 271.699 294.469 272.417 292.775 273.852V290.483C292.775 291.755 293.345 292.554 294.486 292.88L294.926 293.027V293.516H283.441Z" fill="white"/>
<path d="M317.559 266.71C316.451 266.71 315.507 266.367 314.725 265.683C313.975 264.965 313.601 264.068 313.601 262.992C313.601 261.883 313.975 260.987 314.725 260.302C315.507 259.617 316.451 259.274 317.559 259.274C318.667 259.274 319.596 259.617 320.345 260.302C321.094 260.987 321.469 261.883 321.469 262.992C321.469 264.068 321.094 264.965 320.345 265.683C319.596 266.367 318.667 266.71 317.559 266.71ZM311.792 293.516V293.027L312.477 292.831C313.128 292.636 313.568 292.342 313.796 291.951C314.057 291.56 314.187 291.038 314.187 290.386V275.075C314.187 274.39 314.057 273.884 313.796 273.558C313.568 273.199 313.128 272.955 312.477 272.824L311.792 272.678V272.189L320.736 269.302L321.225 269.792L321.078 276.738V290.435C321.078 291.087 321.192 291.609 321.42 292C321.681 292.391 322.121 292.685 322.74 292.88L323.228 293.027V293.516H311.792Z" fill="white"/>
<path d="M337.512 294.25C335.297 294.25 333.277 293.777 331.452 292.831C329.66 291.853 328.227 290.451 327.151 288.625C326.109 286.766 325.588 284.499 325.588 281.825C325.588 279.184 326.158 276.933 327.298 275.075C328.471 273.183 330.019 271.748 331.941 270.77C333.896 269.759 336.03 269.253 338.343 269.253C340.233 269.253 341.829 269.563 343.132 270.183C344.436 270.803 345.429 271.618 346.114 272.629C346.798 273.607 347.14 274.634 347.14 275.711C347.14 276.624 346.863 277.341 346.309 277.863C345.755 278.352 345.038 278.597 344.159 278.597C343.214 278.597 342.448 278.254 341.862 277.569C341.275 276.885 340.933 275.988 340.836 274.879C340.803 274.161 340.819 273.558 340.884 273.069C340.95 272.547 340.95 272.025 340.884 271.504C340.754 270.949 340.542 270.591 340.249 270.427C339.988 270.232 339.614 270.134 339.125 270.134C337.138 270.134 335.59 270.998 334.482 272.727C333.407 274.455 332.869 277.211 332.869 280.994C332.869 284.287 333.472 286.815 334.678 288.576C335.916 290.304 337.805 291.168 340.347 291.168C341.878 291.168 343.116 290.891 344.061 290.337C345.006 289.782 345.918 288.951 346.798 287.842L347.287 288.233C346.472 290.157 345.218 291.641 343.523 292.685C341.829 293.728 339.826 294.25 337.512 294.25Z" fill="white"/>
<path d="M361.62 294.25C359.144 294.25 356.993 293.745 355.169 292.734C353.344 291.69 351.927 290.223 350.917 288.331C349.939 286.44 349.451 284.222 349.451 281.678C349.451 279.135 349.972 276.933 351.015 275.075C352.09 273.216 353.54 271.781 355.364 270.77C357.221 269.759 359.306 269.253 361.62 269.253C363.933 269.253 366.002 269.759 367.826 270.77C369.651 271.748 371.085 273.167 372.127 275.026C373.202 276.885 373.74 279.102 373.74 281.678C373.74 284.255 373.235 286.489 372.225 288.38C371.247 290.239 369.846 291.69 368.022 292.734C366.23 293.745 364.096 294.25 361.62 294.25ZM361.62 293.272C362.76 293.272 363.672 292.946 364.357 292.293C365.041 291.641 365.529 290.483 365.823 288.82C366.148 287.157 366.311 284.809 366.311 281.776C366.311 278.711 366.148 276.346 365.823 274.683C365.529 273.02 365.041 271.862 364.357 271.21C363.672 270.558 362.76 270.232 361.62 270.232C360.479 270.232 359.551 270.558 358.834 271.21C358.15 271.862 357.645 273.02 357.319 274.683C357.026 276.346 356.879 278.711 356.879 281.776C356.879 284.809 357.026 287.157 357.319 288.82C357.645 290.483 358.15 291.641 358.834 292.293C359.551 292.946 360.479 293.272 361.62 293.272Z" fill="white"/>
<path d="M375.886 293.516V293.027L376.619 292.831C377.271 292.636 377.711 292.342 377.939 291.951C378.2 291.56 378.33 291.054 378.33 290.435V275.124C378.33 274.406 378.2 273.884 377.939 273.558C377.711 273.199 377.271 272.955 376.619 272.824L375.886 272.629V272.14L384.292 269.302L384.781 269.792L385.221 273.998V274.39C385.677 273.477 386.263 272.645 386.98 271.895C387.73 271.112 388.544 270.476 389.424 269.987C390.336 269.498 391.232 269.253 392.112 269.253C393.35 269.253 394.295 269.596 394.946 270.281C395.598 270.966 395.924 271.83 395.924 272.873C395.924 273.982 395.598 274.846 394.946 275.466C394.327 276.053 393.578 276.346 392.698 276.346C391.33 276.346 390.124 275.662 389.082 274.292L388.984 274.194C388.658 273.738 388.284 273.493 387.86 273.46C387.436 273.395 387.045 273.591 386.687 274.047C386.361 274.341 386.084 274.7 385.856 275.124C385.661 275.515 385.465 275.971 385.27 276.493V290.141C385.27 291.446 385.84 292.261 386.98 292.587L388.544 293.027V293.516H375.886Z" fill="white"/>
<path d="M397.459 293.516V293.027L398.143 292.831C399.283 292.505 399.853 291.706 399.853 290.435V275.124C399.853 274.406 399.739 273.884 399.511 273.558C399.283 273.199 398.843 272.955 398.192 272.824L397.459 272.629V272.14L405.816 269.302L406.304 269.792L406.695 272.727C407.836 271.716 409.123 270.884 410.556 270.232C411.99 269.58 413.407 269.253 414.808 269.253C416.958 269.253 418.604 269.84 419.744 271.014C420.917 272.189 421.503 273.982 421.503 276.395V290.483C421.503 291.755 422.123 292.554 423.361 292.88L423.8 293.027V293.516H412.267V293.027L412.902 292.831C414.042 292.473 414.613 291.674 414.613 290.435V274.83C414.613 272.743 413.57 271.699 411.485 271.699C410.051 271.699 408.487 272.417 406.793 273.852V290.483C406.793 291.755 407.363 292.554 408.504 292.88L408.943 293.027V293.516H397.459Z" fill="white"/>
<path d="M263.739 342.364L255.088 313.258C254.86 312.508 254.616 311.97 254.355 311.644C254.095 311.285 253.638 310.959 252.987 310.665L252.4 310.421V309.932H265.351V310.421L264.325 310.812C263.576 311.106 263.071 311.464 262.81 311.888C262.549 312.312 262.533 312.899 262.761 313.649L268.088 333.999L273.855 316.927L272.731 313.454C272.503 312.769 272.291 312.247 272.096 311.888C271.9 311.53 271.574 311.236 271.118 311.008L270.043 310.421V309.932H282.31V310.421L280.795 311.008C280.143 311.236 279.769 311.579 279.671 312.035C279.606 312.459 279.687 313.013 279.915 313.698L286.122 334.488L291.986 314.09C292.214 313.307 292.296 312.622 292.231 312.035C292.166 311.448 291.758 311.024 291.009 310.763L289.983 310.421V309.932H296.776V310.421L295.505 310.91C294.854 311.138 294.397 311.497 294.137 311.986C293.876 312.475 293.648 313.079 293.453 313.796L285.34 342.364H281.968L274.637 319.373L267.111 342.364H263.739Z" fill="white"/>
<path d="M302.526 315.41C301.418 315.41 300.473 315.068 299.691 314.383C298.942 313.666 298.567 312.769 298.567 311.693C298.567 310.584 298.942 309.687 299.691 309.002C300.473 308.317 301.418 307.975 302.526 307.975C303.633 307.975 304.562 308.317 305.311 309.002C306.061 309.687 306.435 310.584 306.435 311.693C306.435 312.769 306.061 313.666 305.311 314.383C304.562 315.068 303.633 315.41 302.526 315.41ZM296.759 342.217V341.728L297.443 341.532C298.094 341.336 298.534 341.043 298.762 340.652C299.023 340.26 299.153 339.738 299.153 339.086V323.775C299.153 323.09 299.023 322.585 298.762 322.259C298.534 321.9 298.094 321.655 297.443 321.525L296.759 321.378V320.889L305.702 318.003L306.191 318.492L306.044 325.438V339.135C306.044 339.787 306.158 340.309 306.386 340.7C306.647 341.092 307.087 341.385 307.706 341.581L308.195 341.728V342.217H296.759Z" fill="white"/>
<path d="M319.644 342.951C317.559 342.951 315.93 342.429 314.757 341.385C313.616 340.342 313.046 338.679 313.046 336.396V319.666H309.674V319.177L310.847 318.981C311.857 318.753 312.72 318.427 313.437 318.003C314.187 317.579 314.92 317.008 315.636 316.291L319.644 311.839H320.133L319.986 318.688H325.46V319.666H319.937V337.276C319.937 338.418 320.182 339.282 320.67 339.869C321.192 340.456 321.843 340.749 322.625 340.749C323.309 340.749 323.912 340.586 324.433 340.26C324.955 339.901 325.476 339.429 325.997 338.842L326.486 339.331C325.834 340.44 324.938 341.32 323.798 341.972C322.658 342.625 321.273 342.951 319.644 342.951Z" fill="white"/>
<path d="M328.017 342.217V341.728L328.701 341.532C329.842 341.206 330.412 340.407 330.412 339.135V323.824C330.412 323.107 330.298 322.585 330.07 322.259C329.842 321.9 329.402 321.655 328.75 321.525L328.017 321.329V320.84L336.374 318.003L336.863 318.492L337.254 321.427C338.394 320.416 339.681 319.585 341.115 318.932C342.548 318.28 343.965 317.954 345.366 317.954C347.517 317.954 349.162 318.541 350.302 319.715C351.475 320.889 352.062 322.683 352.062 325.096V339.184C352.062 340.456 352.681 341.255 353.919 341.581L354.359 341.728V342.217H342.825V341.728L343.46 341.532C344.601 341.173 345.171 340.374 345.171 339.135V323.531C345.171 321.443 344.128 320.4 342.043 320.4C340.61 320.4 339.046 321.117 337.352 322.552V339.184C337.352 340.456 337.922 341.255 339.062 341.581L339.502 341.728V342.217H328.017Z" fill="white"/>
<path d="M368.538 317.954C370.655 317.954 372.464 318.394 373.962 319.275C375.461 320.123 376.602 321.297 377.383 322.797C378.198 324.264 378.605 325.944 378.605 327.835C378.605 328.194 378.589 328.569 378.556 328.96C378.524 329.319 378.459 329.645 378.361 329.939H363.797C363.83 333.461 364.449 336.004 365.654 337.57C366.892 339.103 368.717 339.869 371.128 339.869C372.757 339.869 374.076 339.608 375.087 339.086C376.097 338.564 377.041 337.798 377.921 336.787L378.41 337.227C377.4 339.021 376.048 340.423 374.353 341.434C372.692 342.445 370.688 342.951 368.342 342.951C366.029 342.951 363.976 342.461 362.184 341.483C360.392 340.472 358.991 339.037 357.981 337.178C356.971 335.32 356.466 333.102 356.466 330.526C356.466 327.852 357.053 325.585 358.226 323.726C359.399 321.835 360.897 320.4 362.722 319.422C364.579 318.443 366.518 317.954 368.538 317.954ZM368.391 318.932C367.446 318.932 366.632 319.226 365.948 319.813C365.296 320.367 364.775 321.378 364.384 322.846C364.025 324.281 363.83 326.319 363.797 328.96H372.154C372.48 325.406 372.35 322.846 371.763 321.28C371.177 319.715 370.053 318.932 368.391 318.932Z" fill="white"/>
<path d="M389.496 342.951C387.899 342.951 386.466 342.755 385.195 342.364C383.924 342.005 382.751 341.548 381.676 340.994L381.725 335.173H382.214L383.875 338.108C384.592 339.412 385.374 340.391 386.221 341.043C387.101 341.662 388.209 341.972 389.544 341.972C391.108 341.972 392.363 341.63 393.308 340.945C394.285 340.228 394.774 339.282 394.774 338.108C394.774 337.032 394.432 336.151 393.747 335.466C393.063 334.782 391.793 334.162 389.935 333.608L387.883 332.972C385.895 332.385 384.332 331.471 383.191 330.232C382.051 328.993 381.481 327.477 381.481 325.683C381.481 323.531 382.328 321.704 384.022 320.204C385.716 318.704 388.144 317.954 391.304 317.954C392.575 317.954 393.764 318.101 394.872 318.394C396.012 318.655 397.103 319.063 398.146 319.617L397.853 324.9H397.364L395.653 321.867C395.034 320.791 394.415 320.041 393.796 319.617C393.21 319.161 392.314 318.932 391.108 318.932C390.001 318.932 388.958 319.242 387.981 319.862C387.003 320.481 386.514 321.362 386.514 322.503C386.514 323.612 386.922 324.493 387.736 325.145C388.583 325.797 389.821 326.4 391.451 326.955L393.65 327.591C395.996 328.308 397.673 329.303 398.683 330.575C399.693 331.814 400.199 333.314 400.199 335.075C400.199 337.456 399.254 339.363 397.364 340.798C395.507 342.233 392.884 342.951 389.496 342.951Z" fill="white"/>
<path d="M410.782 342.951C409.185 342.951 407.751 342.755 406.481 342.364C405.21 342.005 404.037 341.548 402.962 340.994L403.011 335.173H403.5L405.161 338.108C405.878 339.412 406.66 340.391 407.507 341.043C408.387 341.662 409.495 341.972 410.83 341.972C412.394 341.972 413.649 341.63 414.594 340.945C415.571 340.228 416.06 339.282 416.06 338.108C416.06 337.032 415.718 336.151 415.033 335.466C414.349 334.782 413.078 334.162 411.221 333.608L409.169 332.972C407.181 332.385 405.617 331.471 404.477 330.232C403.337 328.993 402.767 327.477 402.767 325.683C402.767 323.531 403.614 321.704 405.308 320.204C407.002 318.704 409.429 317.954 412.59 317.954C413.86 317.954 415.05 318.101 416.157 318.394C417.298 318.655 418.389 319.063 419.432 319.617L419.139 324.9H418.65L416.939 321.867C416.32 320.791 415.701 320.041 415.082 319.617C414.496 319.161 413.6 318.932 412.394 318.932C411.287 318.932 410.244 319.242 409.266 319.862C408.289 320.481 407.8 321.362 407.8 322.503C407.8 323.612 408.208 324.493 409.022 325.145C409.869 325.797 411.107 326.4 412.736 326.955L414.936 327.591C417.281 328.308 418.959 329.303 419.969 330.575C420.979 331.814 421.484 333.314 421.484 335.075C421.484 337.456 420.54 339.363 418.65 340.798C416.793 342.233 414.17 342.951 410.782 342.951Z" fill="white"/>
<path d="M435.879 317.954C437.997 317.954 439.805 318.394 441.304 319.275C442.803 320.123 443.943 321.297 444.725 322.797C445.54 324.264 445.947 325.944 445.947 327.835C445.947 328.194 445.931 328.569 445.898 328.96C445.866 329.319 445.8 329.645 445.703 329.939H431.139C431.171 333.461 431.79 336.004 432.996 337.57C434.234 339.103 436.059 339.869 438.47 339.869C440.099 339.869 441.418 339.608 442.428 339.086C443.438 338.564 444.383 337.798 445.263 336.787L445.751 337.227C444.741 339.021 443.389 340.423 441.695 341.434C440.033 342.445 438.03 342.951 435.684 342.951C433.371 342.951 431.318 342.461 429.526 341.483C427.734 340.472 426.333 339.037 425.323 337.178C424.313 335.32 423.808 333.102 423.808 330.526C423.808 327.852 424.395 325.585 425.567 323.726C426.74 321.835 428.239 320.4 430.064 319.422C431.921 318.443 433.859 317.954 435.879 317.954ZM435.733 318.932C434.788 318.932 433.973 319.226 433.289 319.813C432.638 320.367 432.116 321.378 431.725 322.846C431.367 324.281 431.171 326.319 431.139 328.96H439.496C439.822 325.406 439.691 322.846 439.105 321.28C438.518 319.715 437.394 318.932 435.733 318.932Z" fill="white"/>
<path d="M456.837 342.951C455.241 342.951 453.807 342.755 452.537 342.364C451.266 342.005 450.093 341.548 449.018 340.994L449.067 335.173H449.555L451.217 338.108C451.934 339.412 452.716 340.391 453.563 341.043C454.443 341.662 455.55 341.972 456.886 341.972C458.45 341.972 459.704 341.63 460.649 340.945C461.627 340.228 462.115 339.282 462.115 338.108C462.115 337.032 461.773 336.151 461.089 335.466C460.405 334.782 459.134 334.162 457.277 333.608L455.225 332.972C453.237 332.385 451.673 331.471 450.533 330.232C449.393 328.993 448.822 327.477 448.822 325.683C448.822 323.531 449.669 321.704 451.364 320.204C453.058 318.704 455.485 317.954 458.646 317.954C459.916 317.954 461.105 318.101 462.213 318.394C463.354 318.655 464.445 319.063 465.488 319.617L465.194 324.9H464.706L462.995 321.867C462.376 320.791 461.757 320.041 461.138 319.617C460.552 319.161 459.656 318.932 458.45 318.932C457.342 318.932 456.3 319.242 455.322 319.862C454.345 320.481 453.856 321.362 453.856 322.503C453.856 323.612 454.263 324.493 455.078 325.145C455.925 325.797 457.163 326.4 458.792 326.955L460.991 327.591C463.337 328.308 465.015 329.303 466.025 330.575C467.035 331.814 467.54 333.314 467.54 335.075C467.54 337.456 466.595 339.363 464.706 340.798C462.849 342.233 460.226 342.951 456.837 342.951Z" fill="white"/>
<mask id="mask1" style="mask-type:alpha" maskUnits="userSpaceOnUse" x="140" y="179" width="151" height="178">
<path d="M290.444 179L140 317.794C145.108 339.264 170.5 359.733 193.487 356.7L290.444 179Z" fill="#683DC4"/>
</mask>
<g mask="url(#mask1)">
<path d="M290.444 179L140 317.794C145.108 339.264 170.5 359.733 193.487 356.7L290.444 179Z" fill="#683DC4"/>
<path d="M290.444 179L140 317.794C145.108 339.264 170.5 359.733 193.487 356.7L290.444 179Z" fill="url(#paint0_linear)"/>
<g filter="url(#filter0_ddiiii)">
<path d="M236.821 291.581C236.821 307.769 223.816 320.893 207.775 320.893C191.733 320.893 178.729 307.769 178.729 291.581C178.729 275.392 191.733 262.269 207.775 262.269C223.816 262.269 236.821 275.392 236.821 291.581Z" fill="white"/>
</g>
<g filter="url(#filter1_di)">
<path d="M216.712 284.441C216.712 292.535 210.21 299.097 202.189 299.097C194.168 299.097 187.666 292.535 187.666 284.441C187.666 276.347 194.168 269.785 202.189 269.785C210.21 269.785 216.712 276.347 216.712 284.441Z" fill="#362F24"/>
<path d="M216.712 284.441C216.712 292.535 210.21 299.097 202.189 299.097C194.168 299.097 187.666 292.535 187.666 284.441C187.666 276.347 194.168 269.785 202.189 269.785C210.21 269.785 216.712 276.347 216.712 284.441Z" fill="url(#paint1_linear)"/>
</g>
<path d="M209.263 284.441C209.263 288.799 205.762 292.333 201.443 292.333C197.124 292.333 193.623 288.799 193.623 284.441C193.623 280.082 197.124 276.549 201.443 276.549C205.762 276.549 209.263 280.082 209.263 284.441Z" fill="black"/>
<path d="M200.327 279.18C200.327 281.463 198.659 283.313 196.603 283.313C194.546 283.313 192.879 281.463 192.879 279.18C192.879 276.897 194.546 275.046 196.603 275.046C198.659 275.046 200.327 276.897 200.327 279.18Z" fill="white"/>
</g>
<defs>
<filter id="filter0_ddiiii" x="154.729" y="226.269" width="126.092" height="152.624" filterUnits="userSpaceOnUse" color-interpolation-filters="sRGB">
<feFlood flood-opacity="0" result="BackgroundImageFix"/>
<feColorMatrix in="SourceAlpha" type="matrix" values="0 0 0 0 0 0 0 0 0 0 0 0 0 0 0 0 0 0 127 0" result="hardAlpha"/>
<feOffset dx="30" dy="44"/>
<feGaussianBlur stdDeviation="7"/>
<feColorMatrix type="matrix" values="0 0 0 0 0.460677 0 0 0 0 0.384115 0 0 0 0 0.520833 0 0 0 0.25 0"/>
<feBlend mode="normal" in2="BackgroundImageFix" result="effect1_dropShadow"/>
<feColorMatrix in="SourceAlpha" type="matrix" values="0 0 0 0 0 0 0 0 0 0 0 0 0 0 0 0 0 0 127 0" result="hardAlpha"/>
<feOffset dx="10" dy="14"/>
<feGaussianBlur stdDeviation="17"/>
<feColorMatrix type="matrix" values="0 0 0 0 0.114569 0 0 0 0 0.0253472 0 0 0 0 0.304167 0 0 0 0.63 0"/>
<feBlend mode="normal" in2="effect1_dropShadow" result="effect2_dropShadow"/>
<feBlend mode="normal" in="SourceGraphic" in2="effect2_dropShadow" result="shape"/>
<feColorMatrix in="SourceAlpha" type="matrix" values="0 0 0 0 0 0 0 0 0 0 0 0 0 0 0 0 0 0 127 0" result="hardAlpha"/>
<feOffset dx="-24" dy="-36"/>
<feGaussianBlur stdDeviation="32"/>
<feComposite in2="hardAlpha" operator="arithmetic" k2="-1" k3="1"/>
<feColorMatrix type="matrix" values="0 0 0 0 0.145833 0 0 0 0 0.2025 0 0 0 0 0.5 0 0 0 0.07 0"/>
<feBlend mode="normal" in2="shape" result="effect3_innerShadow"/>
<feColorMatrix in="SourceAlpha" type="matrix" values="0 0 0 0 0 0 0 0 0 0 0 0 0 0 0 0 0 0 127 0" result="hardAlpha"/>
<feOffset dy="-16"/>
<feGaussianBlur stdDeviation="7"/>
<feComposite in2="hardAlpha" operator="arithmetic" k2="-1" k3="1"/>
<feColorMatrix type="matrix" values="0 0 0 0 0.0546875 0 0 0 0 0.161875 0 0 0 0 0.4375 0 0 0 0.21 0"/>
<feBlend mode="normal" in2="effect3_innerShadow" result="effect4_innerShadow"/>
<feColorMatrix in="SourceAlpha" type="matrix" values="0 0 0 0 0 0 0 0 0 0 0 0 0 0 0 0 0 0 127 0" result="hardAlpha"/>
<feOffset dx="-20" dy="-16"/>
<feGaussianBlur stdDeviation="7"/>
<feComposite in2="hardAlpha" operator="arithmetic" k2="-1" k3="1"/>
<feColorMatrix type="matrix" values="0 0 0 0 0.680062 0 0 0 0 0.304688 0 0 0 0 0.975 0 0 0 0.15 0"/>
<feBlend mode="normal" in2="effect4_innerShadow" result="effect5_innerShadow"/>
<feColorMatrix in="SourceAlpha" type="matrix" values="0 0 0 0 0 0 0 0 0 0 0 0 0 0 0 0 0 0 127 0" result="hardAlpha"/>
<feOffset dx="-8" dy="1"/>
<feGaussianBlur stdDeviation="4"/>
<feComposite in2="hardAlpha" operator="arithmetic" k2="-1" k3="1"/>
<feColorMatrix type="matrix" values="0 0 0 0 0.370742 0 0 0 0 0.85 0 0 0 0 0.145208 0 0 0 0.21 0"/>
<feBlend mode="normal" in2="effect5_innerShadow" result="effect6_innerShadow"/>
</filter>
<filter id="filter1_di" x="182.666" y="263.785" width="49.0461" height="49.3121" filterUnits="userSpaceOnUse" color-interpolation-filters="sRGB">
<feFlood flood-opacity="0" result="BackgroundImageFix"/>
<feColorMatrix in="SourceAlpha" type="matrix" values="0 0 0 0 0 0 0 0 0 0 0 0 0 0 0 0 0 0 127 0" result="hardAlpha"/>
<feOffset dx="5" dy="4"/>
<feGaussianBlur stdDeviation="5"/>
<feColorMatrix type="matrix" values="0 0 0 0 0 0 0 0 0 0 0 0 0 0 0 0 0 0 0.25 0"/>
<feBlend mode="normal" in2="BackgroundImageFix" result="effect1_dropShadow"/>
<feBlend mode="normal" in="SourceGraphic" in2="effect1_dropShadow" result="shape"/>
<feColorMatrix in="SourceAlpha" type="matrix" values="0 0 0 0 0 0 0 0 0 0 0 0 0 0 0 0 0 0 127 0" result="hardAlpha"/>
<feOffset dx="5" dy="6"/>
<feGaussianBlur stdDeviation="7"/>
<feComposite in2="hardAlpha" operator="arithmetic" k2="-1" k3="1"/>
<feColorMatrix type="matrix" values="0 0 0 0 0.595833 0 0 0 0 0.536747 0 0 0 0 0.422049 0 0 0 1 0"/>
<feBlend mode="normal" in2="shape" result="effect2_innerShadow"/>
</filter>
<linearGradient id="paint0_linear" x1="162.716" y1="344.899" x2="287.936" y2="207.092" gradientUnits="userSpaceOnUse">
<stop stop-color="#FB47FF"/>
<stop offset="0.140625" stop-color="#7536FC"/>
<stop offset="0.255208" stop-color="#215AEC"/>
<stop offset="0.40625" stop-color="#50F7C8"/>
<stop offset="0.59375" stop-color="#00EB86"/>
<stop offset="0.71875" stop-color="#FEDA00"/>
<stop offset="0.848958" stop-color="#FFC700"/>
<stop offset="1" stop-color="#FF3D00"/>
</linearGradient>
<linearGradient id="paint1_linear" x1="212.847" y1="295.433" x2="195.369" y2="279.517" gradientUnits="userSpaceOnUse">
<stop stop-color="#83765C"/>
<stop offset="1" stop-color="#5F523B" stop-opacity="0"/>
</linearGradient>
<clipPath id="clip0">
<rect width="601.92" height="601.92" fill="white" transform="translate(3.03906 3.04004)"/>
</clipPath>
</defs>
</svg>
